<!--?xml version="1.0" encoding="UTF-8"?-->
<svg xmlns="http://www.w3.org/2000/svg" viewBox="0 0 120 120" width="120" height="120">
  <!-- Outer Circle -->
  <circle cx="60" cy="60" r="58" fill="none" stroke="#000080" stroke-width="4"></circle>
  <!-- 24 spokes -->
  <g stroke="#000080" stroke-width="2">
    <circle cx="60" cy="60" r="5" fill="#000080"></circle>
    <!-- Generate 24 spokes -->
    <g>
      <!-- Each line rotated by 15 degrees -->
      <line x1="60" y1="60" x2="60" y2="4" transform="rotate(0,60,60)"></line>
      <line x1="60" y1="60" x2="60" y2="4" transform="rotate(15,60,60)"></line>
      <line x1="60" y1="60" x2="60" y2="4" transform="rotate(30,60,60)"></line>
      <line x1="60" y1="60" x2="60" y2="4" transform="rotate(45,60,60)"></line>
      <line x1="60" y1="60" x2="60" y2="4" transform="rotate(60,60,60)"></line>
      <line x1="60" y1="60" x2="60" y2="4" transform="rotate(75,60,60)"></line>
      <line x1="60" y1="60" x2="60" y2="4" transform="rotate(90,60,60)"></line>
      <line x1="60" y1="60" x2="60" y2="4" transform="rotate(105,60,60)"></line>
      <line x1="60" y1="60" x2="60" y2="4" transform="rotate(120,60,60)"></line>
      <line x1="60" y1="60" x2="60" y2="4" transform="rotate(135,60,60)"></line>
      <line x1="60" y1="60" x2="60" y2="4" transform="rotate(150,60,60)"></line>
      <line x1="60" y1="60" x2="60" y2="4" transform="rotate(165,60,60)"></line>
      <line x1="60" y1="60" x2="60" y2="4" transform="rotate(180,60,60)"></line>
      <line x1="60" y1="60" x2="60" y2="4" transform="rotate(195,60,60)"></line>
      <line x1="60" y1="60" x2="60" y2="4" transform="rotate(210,60,60)"></line>
      <line x1="60" y1="60" x2="60" y2="4" transform="rotate(225,60,60)"></line>
      <line x1="60" y1="60" x2="60" y2="4" transform="rotate(240,60,60)"></line>
      <line x1="60" y1="60" x2="60" y2="4" transform="rotate(255,60,60)"></line>
      <line x1="60" y1="60" x2="60" y2="4" transform="rotate(270,60,60)"></line>
      <line x1="60" y1="60" x2="60" y2="4" transform="rotate(285,60,60)"></line>
      <line x1="60" y1="60" x2="60" y2="4" transform="rotate(300,60,60)"></line>
      <line x1="60" y1="60" x2="60" y2="4" transform="rotate(315,60,60)"></line>
      <line x1="60" y1="60" x2="60" y2="4" transform="rotate(330,60,60)"></line>
      <line x1="60" y1="60" x2="60" y2="4" transform="rotate(345,60,60)"></line>
    </g>
  </g>
</svg>
